<svg
  width="83"
  height="62"
  viewBox="0 0 83 62"
  fill="none"
  xmlns="http://www.w3.org/2000/svg"
>
  <path
  d="M18.8646 24.7254C17.9419 24.7254 17.0565 24.8663 16.1751 24.9947C16.4606 24.0338 16.7544 23.0564 17.2261 22.1784C17.6978 20.9027 18.4343 19.7969 19.1667 18.6828C19.7791 17.4776 20.859 16.6617 21.6534 15.6305C22.4851 14.6282 23.6188 13.9614 24.5167 13.1289C25.398 12.2592 26.5525 11.8243 27.471 11.2114C28.431 10.6605 29.2668 10.0517 30.1605 9.76179L32.3907 8.84235L34.352 8.02645L32.3452 0L29.875 0.596391C29.0847 0.795189 28.1206 1.02712 27.0242 1.30461C25.9028 1.51169 24.7071 2.07909 23.3747 2.59679C22.0589 3.1849 20.5363 3.5825 19.1212 4.52679C17.6978 5.42966 16.0552 6.18343 14.607 7.39278C13.2043 8.63941 11.512 9.72037 10.2624 11.3066C8.89696 12.7893 7.54808 14.3466 6.50124 16.1192C5.2889 17.8089 4.4655 19.6644 3.59659 21.4991C2.81043 23.3339 2.17736 25.21 1.66015 27.0323C0.679521 30.6852 0.240926 34.1559 0.0712809 37.1255C-0.0694003 40.0991 0.0133534 42.5717 0.187136 44.3609C0.249201 45.2057 0.365057 46.0258 0.447811 46.5932L0.551252 47.289L0.658832 47.2641C1.39477 50.7051 3.08891 53.8672 5.54529 56.3847C8.00166 58.9022 11.1199 60.6722 14.5393 61.4899C17.9586 62.3075 21.5394 62.1396 24.8674 61.0053C28.1954 59.8711 31.1346 57.8169 33.3449 55.0805C35.5553 52.3441 36.9465 49.0372 37.3577 45.5424C37.7688 42.0476 37.1831 38.5077 35.6683 35.3322C34.1535 32.1567 31.7715 29.4753 28.7978 27.5983C25.8241 25.7212 22.3802 24.7252 18.8646 24.7254ZM64.3792 24.7254C63.4565 24.7254 62.571 24.8663 61.6897 24.9947C61.9752 24.0338 62.269 23.0564 62.7406 22.1784C63.2123 20.9027 63.9489 19.7969 64.6812 18.6828C65.2936 17.4776 66.3735 16.6617 67.168 15.6305C67.9996 14.6282 69.1334 13.9614 70.0312 13.1289C70.9126 12.2592 72.067 11.8243 72.9856 11.2114C73.9455 10.6605 74.7813 10.0517 75.675 9.76179L77.9053 8.84235L79.8665 8.02645L77.8597 0L75.3895 0.596391C74.5992 0.795189 73.6352 1.02712 72.5387 1.30461C71.4174 1.51169 70.2216 2.07909 68.8892 2.59679C67.5776 3.18904 66.0508 3.5825 64.6357 4.53093C63.2123 5.4338 61.5697 6.18757 60.1215 7.39693C58.7188 8.64355 57.0265 9.72452 55.7769 11.3066C54.4115 12.7893 53.0626 14.3466 52.0158 16.1192C50.8034 17.8089 49.98 19.6644 49.1111 21.4991C48.325 23.3339 47.6919 25.21 47.1747 27.0323C46.194 30.6852 45.7555 34.1559 45.5858 37.1255C45.4451 40.0991 45.5279 42.5717 45.7017 44.3609C45.7637 45.2057 45.8796 46.0258 45.9623 46.5932L46.0658 47.289L46.1734 47.2641C46.9093 50.7051 48.6034 53.8672 51.0598 56.3847C53.5162 58.9022 56.6344 60.6722 60.0538 61.4899C63.4732 62.3075 67.054 62.1396 70.3819 61.0053C73.7099 59.8711 76.6491 57.8169 78.8594 55.0805C81.0698 52.3441 82.461 49.0372 82.8722 45.5424C83.2834 42.0476 82.6977 38.5077 81.1829 35.3322C79.668 32.1567 77.286 29.4753 74.3123 27.5983C71.3386 25.7212 67.8948 24.7252 64.3792 24.7254Z"
  fill="black"
  />
</svg>